<svg xmlns="http://www.w3.org/2000/svg" width="153" height="126" viewBox="0 0 153 126"><script xmlns="" src="moz-extension://c65f3e3d-ea5c-466b-becb-bc8ed29f7ecf/js/elephant.js"/>
    <defs>
        <filter id="ott3l17oga" color-interpolation-filters="auto">
            <feColorMatrix in="SourceGraphic" values="0 0 0 0 0.000000 0 0 0 0 0.274510 0 0 0 0 0.239216 0 0 0 1.000000 0"/>
        </filter>
    </defs>
    <g fill="none" fill-rule="evenodd">
        <g>
            <g filter="url(#ott3l17oga)" transform="translate(-88.000000, -114.000000) translate(35.000000, 79.000000)">
                <g>
                    <path fill="#97BE0D" fill-opacity=".11" d="M141.42 16.25l.058.235c.932 4.036-1.58 8.062-5.612 8.993l-12.672 2.925c3.955-.913 7.903 1.496 8.933 5.387l.058.235c.932 4.036-1.579 8.062-5.616 8.994l-10.72 2.475c-4.037.932-6.555 4.96-5.623 8.995.911 3.947 4.8 6.45 8.755 5.672l.243-.052 23.868-5.51c3.689-.852 7.372 1.39 8.338 5.012l.058.233c.87 3.767-1.484 7.527-5.247 8.396l-22.177 5.12c3.952-.913 7.898 1.497 8.928 5.387l.058.236c.932 4.036-1.582 8.062-5.611 8.992L22.949 112.1v-.001l-13.164 3.04c-4.03.93-8.056-1.595-8.986-5.623-.931-4.036 1.582-8.062 5.612-8.993l39.477-9.114c3.682-.85 6.011-4.471 5.29-8.158l-.05-.236-.058-.233c-.946-3.546-4.49-5.769-8.096-5.064l-.235.05-26.805 6.189c-4.034.93-8.061-1.594-8.991-5.622-.932-4.036 1.589-8.064 5.616-8.994l6.816-1.573c3.957-.914 6.46-4.802 5.681-8.755l-.051-.243-.059-.235c-1.008-3.81-4.824-6.199-8.703-5.435l-.243.052-6.82 1.575c-4.031.93-8.056-1.595-8.986-5.623-.932-4.036 1.58-8.062 5.612-8.993l126.686-29.248c3.952-.912 7.898 1.497 8.928 5.388zM101.367 41H42.91c-.432 0-.86.09-1.254.264-1.517.668-2.235 2.4-1.663 3.933l.069.17 13.994 31.775c.471 1.07 1.498 1.78 2.654 1.852l.194.006h30.47c1.168 0 2.232-.654 2.764-1.683l.083-.175 13.995-31.775c.174-.396.264-.823.264-1.255 0-1.719-1.394-3.112-3.113-3.112z" transform="translate(53.861378, 37.000000)"/>
                    <g stroke="#97BE0D" stroke-width="2.5" transform="translate(53.861378, 37.000000) translate(17.138622, 0.000000)">
                        <path stroke-linejoin="round" d="M39.765 41h30.47c1.233 0 2.35.729 2.848 1.858l13.994 31.775c.693 1.573-.02 3.41-1.594 4.103-.395.174-.822.264-1.254.264H25.77c-1.719 0-3.112-1.393-3.112-3.112 0-.432.09-.86.264-1.255l13.994-31.775c.498-1.13 1.615-1.858 2.848-1.858z" transform="translate(55.000000, 60.000000) rotate(-180.000000) translate(-55.000000, -60.000000)"/>
                        <path stroke-linecap="round" stroke-linejoin="round" d="M0 30.5l12.452 28.295 5.957 13.485c.902 1.813 2.255 2.72 4.06 2.72H36" transform="translate(18.000000, 52.750000) rotate(180.000000) translate(-18.000000, -52.750000)"/>
                        <circle cx="32.5" cy="112.5" r="9.5" fill="#97BE0D" fill-opacity=".2"/>
                        <circle cx="78.5" cy="112.5" r="9.5" fill="#97BE0D" fill-opacity=".2"/>
                        <path stroke-linecap="round" d="M80.342 94C84.78 87.72 87 83.67 87 81.852c0-1.818-.85-2.769-2.548-2.852L32 79.218" transform="translate(59.500000, 86.500000) rotate(-180.000000) translate(-59.500000, -86.500000)"/>
                        <path stroke-linecap="round" stroke-linejoin="round" d="M52.1 0v16.756M26 4.303l11.1 12.453m41-12.453L67 16.756"/>
                    </g>
                </g>
            </g>
        </g>
    </g>
</svg>